# xmcd
#
# Track frame offsets:
#	150
#	13043
#	26936
#	37113
#	48853
#	61003
#	74764
#	93314
#	104688
#	116749
#	125245
#	135791
#	144803
#	153584
#	164222
#	175269
#	188070
#	199650
#	211984
#	224776
#	234172
#	246634
#	258229
#	267496
#	279619
#
# Disc length: 3835 seconds
#
# Revision: 0
# Processed by: cddbd v1.5.2PL0 Copyright (c) Steve Scherf et al.
# Submitted via: audiograbber 1.83.01
#
DISCID=880ef919
DTITLE=Johnny Cash - The Rebel CD2
DYEAR=2017
DGENRE=Country
TTITLE0=Ring of Fire [Live]
TTITLE1=Don't Take Your Guns to Town
TTITLE2=Ballad of a Teenage Queen
TTITLE3=Cottonfields
TTITLE4=I'm So Lonesome I Could Cry
TTITLE5=Tennessee Flat Top Box
TTITLE6=The Big Battle
TTITLE7=Cry Cry Cry
TTITLE8=Thanks a Lot
TTITLE9=You Dreamer You
TTITLE10=Frankie's Man, Johnny
TTITLE11=Katy Too
TTITLE12=I Forgot to Remember to Forget
TTITLE13=There You Go
TTITLE14=Train of Love
TTITLE15=Next in Line
TTITLE16=Don't Make Me Go
TTITLE17=Home of the Blues
TTITLE18=Give My Love to Rose
TTITLE19=One More Ride
TTITLE20=That's Enough
TTITLE21=I'd Rather Die Young
TTITLE22=Pickin' Time
TTITLE23=So Doggone Lonesome
TTITLE24=Five Feet and Rising
EXTD=
EXTT0=
EXTT1=
EXTT2=
EXTT3=
EXTT4=
EXTT5=
EXTT6=
EXTT7=
EXTT8=
EXTT9=
EXTT10=
EXTT11=
EXTT12=
EXTT13=
EXTT14=
EXTT15=
EXTT16=
EXTT17=
EXTT18=
EXTT19=
EXTT20=
EXTT21=
EXTT22=
EXTT23=
EXTT24=
PLAYORDER=
